<svg width="28" height="24" fill="none" xmlns="http://www.w3.org/2000/svg"><path fill-rule="evenodd" clip-rule="evenodd" d="M24 .75H4A3.747 3.747 0 0 0 .263 4.5L.25 19.499A3.758 3.758 0 0 0 4 23.25h20a3.757 3.757 0 0 0 3.75-3.75v-15A3.757 3.757 0 0 0 24 .75ZM2.762 4.501c0-.69.558-1.251 1.238-1.251h20c.685 0 1.25.565 1.25 1.25v15c0 .685-.565 1.25-1.25 1.25H4c-.685 0-1.25-.565-1.25-1.25l.013-14.999Zm2.879 3.62A1 1 0 0 1 5.3 6.75l.258-.429a1 1 0 0 1 1.372-.34l7.032 4.237 7.33-4.417a1 1 0 0 1 1.373.341l.26.431a1 1 0 0 1-.338 1.37l-8.576 5.206-.007.013L5.64 8.12Z" fill="#979797"/></svg>