<svg width="27" height="30" fill="none" xmlns="http://www.w3.org/2000/svg"><path fill-rule="evenodd" clip-rule="evenodd" d="M7.447 13.538c1.62 3.42 4.23 6.21 7.414 7.963l2.475-2.659a1.065 1.065 0 0 1 1.148-.29c1.26.448 2.621.69 4.016.69.619 0 1.125.543 1.125 1.208v4.217c0 .664-.506 1.208-1.125 1.208-10.564 0-19.125-9.195-19.125-20.542 0-.664.506-1.208 1.125-1.208h3.938c.618 0 1.124.544 1.124 1.208 0 1.51.226 2.96.642 4.314.123.423.034.894-.282 1.233l-2.475 2.658Z" fill="#4E6BAD"/><mask id="a" style="mask-type:alpha" maskUnits="userSpaceOnUse" x="3" y="4" width="21" height="22"><path fill-rule="evenodd" clip-rule="evenodd" d="M7.447 13.538c1.62 3.42 4.23 6.21 7.414 7.963l2.475-2.659a1.065 1.065 0 0 1 1.148-.29c1.26.448 2.621.69 4.016.69.619 0 1.125.543 1.125 1.208v4.217c0 .664-.506 1.208-1.125 1.208-10.564 0-19.125-9.195-19.125-20.542 0-.664.506-1.208 1.125-1.208h3.938c.618 0 1.124.544 1.124 1.208 0 1.51.226 2.96.642 4.314.123.423.034.894-.282 1.233l-2.475 2.658Z" fill="#fff"/></mask><g mask="url(#a)"><path fill="#4E6BAD" d="M0 .5h27v29H0z"/></g></svg>