<svg width="29" height="29" fill="none" xmlns="http://www.w3.org/2000/svg"><path fill-rule="evenodd" clip-rule="evenodd" d="m19.517 18.333-.467-.45a10.785 10.785 0 0 0 2.617-7.05C21.667 4.85 16.817 0 10.833 0 4.85 0 0 4.85 0 10.833c0 5.984 4.85 10.834 10.833 10.834 2.684 0 5.15-.984 7.05-2.617l.45.467v1.316l7.627 7.611a1 1 0 0 0 1.413 0l1.07-1.07a1 1 0 0 0 .001-1.414l-7.61-7.627h-1.317Zm-16.184-7.5c0-4.15 3.35-7.5 7.5-7.5s7.5 3.35 7.5 7.5-3.35 7.5-7.5 7.5a7.49 7.49 0 0 1-7.5-7.5Z" fill="#C2D1D9"/></svg>